<svg version="1.1" xmlns="http://www.w3.org/2000/svg" xmlns:xlink="http://www.w3.org/1999/xlink" width="158.2091" height="125" viewBox="0,0,158.2091,125"><defs><linearGradient x1="230.41172" y1="221.28491" x2="586.8901" y2="191.4327" gradientUnits="userSpaceOnUse" id="color-1"><stop offset="0" stop-color="#000000" stop-opacity="0"/><stop offset="1" stop-color="#000000" stop-opacity="0"/></linearGradient><linearGradient x1="436.18612" y1="2358.07567" x2="438.79965" y2="2389.28529" gradientUnits="userSpaceOnUse" id="color-2"><stop offset="0" stop-color="#ff0000"/><stop offset="1" stop-color="#ff6b00"/></linearGradient><linearGradient x1="263.85126" y1="150.68547" x2="294.64563" y2="150.68547" gradientUnits="userSpaceOnUse" id="color-3"><stop offset="0" stop-color="#ffa919" stop-opacity="0"/><stop offset="1" stop-color="#ffa919"/></linearGradient><linearGradient x1="273.3233" y1="159.87785" x2="305.56392" y2="159.87785" gradientUnits="userSpaceOnUse" id="color-4"><stop offset="0" stop-color="#ffa919" stop-opacity="0"/><stop offset="1" stop-color="#ffa919"/></linearGradient><linearGradient x1="276.18635" y1="174.55284" x2="308.80452" y2="174.55284" gradientUnits="userSpaceOnUse" id="color-5"><stop offset="0" stop-color="#ffa919" stop-opacity="0"/><stop offset="1" stop-color="#ffa919"/></linearGradient><linearGradient x1="274.00977" y1="189.5504" x2="306.04548" y2="189.5504" gradientUnits="userSpaceOnUse" id="color-6"><stop offset="0" stop-color="#ffa919" stop-opacity="0"/><stop offset="1" stop-color="#ffa919"/></linearGradient><linearGradient x1="267.99528" y1="205.51535" x2="300.63055" y2="205.51535" gradientUnits="userSpaceOnUse" id="color-7"><stop offset="0" stop-color="#ffa919" stop-opacity="0"/><stop offset="1" stop-color="#ffa919"/></linearGradient><linearGradient x1="239.66696" y1="146.18683" x2="239.66696" y2="213.81318" gradientUnits="userSpaceOnUse" id="color-8"><stop offset="0" stop-color="#ff0000"/><stop offset="1" stop-color="#ff9f00"/></linearGradient></defs><g transform="translate(-150.59545,-117.5)"><g data-paper-data="{&quot;isPaintingLayer&quot;:true}" stroke-miterlimit="10" stroke-dasharray="" stroke-dashoffset="0" style="mix-blend-mode: normal"><path d="M240,117.5c34.5178,0 62.5,27.9822 62.5,62.5c0,34.5178 -27.9822,62.5 -62.5,62.5c-34.5178,0 -62.5,-27.9822 -62.5,-62.5c0,-34.5178 27.9822,-62.5 62.5,-62.5z" fill="#9a9a9a" fill-rule="nonzero" stroke="none" stroke-width="0.5" stroke-linecap="butt" stroke-linejoin="miter"/><path d="M202.29607,236.4144l11.82996,-26.54073l72.53567,-10.75827l-11.82995,26.54072z" fill-opacity="0.60157" fill="#000000" fill-rule="nonzero" stroke="url(#color-1)" stroke-width="0" stroke-linecap="butt" stroke-linejoin="miter"/><path d="" fill="none" fill-rule="nonzero" stroke="#000000" stroke-width="14" stroke-linecap="round" stroke-linejoin="miter"/><path d="" fill="none" fill-rule="nonzero" stroke="url(#color-2)" stroke-width="5" stroke-linecap="round" stroke-linejoin="miter"/><path d="M291.22568,139.59265l3.41995,5.66775l-27.37441,16.51788l-3.41995,-5.66775z" fill="url(#color-3)" fill-rule="nonzero" stroke="none" stroke-width="NaN" stroke-linecap="butt" stroke-linejoin="miter"/><path d="M303.21543,151.11198l2.34846,6.18905l-29.89217,11.34271l-2.34846,-6.18904z" fill="url(#color-4)" fill-rule="nonzero" stroke="none" stroke-width="NaN" stroke-linecap="butt" stroke-linejoin="miter"/><path d="M307.74945,168.73733l1.0551,6.53501l-31.56311,5.09599l-1.0551,-6.535z" fill="url(#color-5)" fill-rule="nonzero" stroke="none" stroke-width="NaN" stroke-linecap="butt" stroke-linejoin="miter"/><path d="M305.98002,186.08273l0.06544,6.61931l-31.97028,0.31604l-0.06543,-6.6193z" fill="url(#color-6)" fill-rule="nonzero" stroke="none" stroke-width="NaN" stroke-linecap="butt" stroke-linejoin="miter"/><path d="M300.63055,206.00418l-1.53561,6.43906l-31.09969,-7.41675l1.53561,-6.43905z" fill="url(#color-7)" fill-rule="nonzero" stroke="none" stroke-width="NaN" stroke-linecap="butt" stroke-linejoin="miter"/><g fill="none" fill-rule="nonzero" stroke-linecap="round" stroke-linejoin="miter"><path d="M210.41265,151.08645c0,0 47.4599,-3.89064 57.49075,-4.73065c3.64259,-0.30505 0.24133,-0.10394 0.24133,-0.10394l-28.5557,2.39131l5.45745,65.17001" stroke="#000000" stroke-width="22.5"/><path d="M210.41265,151.08645c0,0 47.4599,-3.89064 57.49075,-4.73065c3.6426,-0.30505 0.24133,-0.10394 0.24133,-0.10394l-28.55571,2.39131l5.45745,65.17001" stroke="url(#color-8)" stroke-width="7.5"/></g><g><path d="M219.89327,191.59292c0.38037,3.73886 -6.09561,4.81671 -14.13617,5.6347c-8.04056,0.81799 -14.74791,-0.37852 -14.98128,-2.67249c-0.23337,-2.29397 6.09561,-4.81672 14.13617,-5.63471c8.04056,-0.81799 14.60092,-1.06635 14.98129,2.6725z" fill="#ffab19" fill-rule="nonzero" stroke="#001026" stroke-width="1.2" stroke-linecap="butt" stroke-linejoin="miter"/><g fill-rule="evenodd"><path d="M183.83672,206.83897c0.83638,0.31698 2.61874,1.0403 0.57518,4.66575c-2.04356,3.62545 -8.83728,5.0202 -9.63317,5.10117c-3.07396,0.41323 -6.85444,0.79784 -11.17458,-0.16988c-12.54219,-2.74469 -13.96754,-15.7673 -10.30011,-18.25124c3.56795,-2.47382 6.07902,5.41253 12.04671,9.73071c2.61034,1.9458 5.57641,2.44818 8.0147,2.70271c3.44327,0.2528 9.52529,-4.18555 10.47127,-3.77921z" fill="#ffab19" stroke="#001026" stroke-width="1.2" stroke-linecap="round" stroke-linejoin="round"/><path d="M158.34427,201.2906c1.86505,2.5242 5.33373,5.99093 5.33373,5.99093c0,0 -3.77209,-0.52089 -5.68924,1.38292c-1.5597,1.46538 -0.93909,3.6136 -0.66926,4.28976c-1.4249,-1.16175 -3.19887,-2.79057 -4.54797,-6.17139c-1.3491,-3.38082 -0.77932,-7.66046 1.14968,-8.4598c1.94924,-0.60037 2.5985,0.84132 4.42307,2.96757z" fill="#ffffff" stroke="none" stroke-width="1" stroke-linecap="butt" stroke-linejoin="miter"/></g><g fill-rule="evenodd"><path d="M205.218,222.63615c0.03195,0.08012 11.9804,-2.78107 10.89481,1.36476c-1.08558,4.14583 -6.41399,7.30275 -12.17837,9.25854c-2.64853,0.89862 -2.70474,0.8808 -3.72546,-0.24871c-1.02072,-1.12951 -12.0718,-17.23225 -12.0718,-17.23225c0,0 -1.44499,-1.53161 -1.29315,-3.93577c0.17252,-2.73157 1.98895,-6.43753 2.83124,-7.5734c1.61418,-2.17679 13.47282,13.17432 15.54273,18.36683z" fill="#ffab19" stroke="#001026" stroke-width="1.2" stroke-linecap="round" stroke-linejoin="round"/><path d="" fill="#ffffff" stroke="none" stroke-width="1" stroke-linecap="butt" stroke-linejoin="miter"/></g><g fill-rule="evenodd"><path d="M190.19186,212.42987c-0.32112,0.21532 0.7657,9.60538 -0.29133,15.0944c-0.01631,0.0847 11.58884,4.11867 8.43891,7.02457c-3.14993,2.9059 -9.33961,2.69098 -15.24867,1.22945c-2.71501,-0.67152 -2.75274,-0.71684 -3.00321,-2.21848c-0.25047,-1.50164 -0.87318,-21.02181 -0.87318,-21.02181c0,0 -0.11016,-7.87929 -1.15813,-13.28593c-0.74744,-4.74356 2.22911,-12.77728 7.57986,-15.74538c2.91559,-1.81914 9.72671,5.3828 10.65847,7.87114c0,0 1.32718,3.72674 1.56569,6.01653c0.26869,2.78888 0.32457,4.709 -0.00782,6.1717c0,0 -0.51434,4.07213 -7.66057,8.8638z" fill="#ffab19" stroke="#001026" stroke-width="1.2" stroke-linecap="round" stroke-linejoin="round"/><path d="M197.10162,204.07227c0,0 -1.92012,0.0559 -4.11063,-0.05219c-2.6896,-0.07793 -5.18504,0.07283 -5.6665,-3.58478c-0.18092,-2.99454 -0.95581,-6.53426 4.35155,-7.2356c5.02546,-0.72439 5.19486,2.41109 5.19486,2.41109c1.23501,4.85435 0.23071,8.46149 0.23071,8.46149z" fill="#ffffff" stroke="none" stroke-width="1" stroke-linecap="butt" stroke-linejoin="miter"/></g><g><path d="M194.99708,132.2234c0.27821,-0.22934 0.78577,-0.18045 0.92574,0.20737l3.6696,10.38191c0,0 6.84283,4.02811 9.06707,7.11887c3.74023,5.14789 4.29516,9.61465 4.29516,9.61465c0,0 7.27608,1.37063 9.04682,6.9199c1.77074,5.54927 -1.51359,16.73914 -19.84257,22.3229c-18.32898,5.58376 -33.86762,2.03823 -42.08496,-8.58463c-7.77589,-10.05218 0.55127,-23.72271 1.03124,-24.43668l-3.8994,-17.58883c-0.13997,-0.38782 0.3271,-0.73689 0.74528,-0.5784l12.83744,6.63478c0,0 4.30483,-2.14672 8.96045,-2.82138c2.76538,-0.48236 5.1733,-0.52631 7.50198,-0.36114zM161.10516,155.76769l0.00149,0.00671c0.02772,-0.04602 0.02576,-0.04725 -0.00149,-0.00671z" fill="#ffab19" fill-rule="nonzero" stroke="#001026" stroke-width="1.2" stroke-linecap="butt" stroke-linejoin="miter"/><path d="M212.69658,159.97452c0,0 7.04675,1.09241 8.81749,6.64168c1.77074,5.54927 -1.96214,16.2822 -20.10227,21.74623c-23.56967,7.42362 -36.46807,-5.73851 -30.8753,-16.96219c5.58264,-11.32317 17.9446,-3.43382 26.24075,-4.88091c7.11243,-1.22615 7.27069,-7.57477 15.91934,-6.54481z" fill="#ffffff" fill-rule="evenodd" stroke="none" stroke-width="1" stroke-linecap="butt" stroke-linejoin="miter"/><path d="M182.44132,173.80771c-0.04048,-0.39794 0.32709,-0.73689 0.73516,-0.67789c1.96109,0.50411 7.4953,1.54935 13.50498,1.34003c5.40264,-0.24808 8.55585,-0.87041 10.01778,-1.32068c0.48731,-0.15009 0.93586,0.30685 0.78749,0.82452c-0.62211,2.77723 -3.64351,10.62331 -14.15032,11.08911c-9.15448,-0.07385 -10.69761,-6.3499 -10.89508,-11.2551z" fill="#ffffff" fill-rule="evenodd" stroke="#001026" stroke-width="1.2" stroke-linecap="round" stroke-linejoin="round"/><path d="M231.1134,159.2066c-4.29127,4.25618 -11.44418,5.08438 -11.44418,5.08438" fill="none" fill-rule="evenodd" stroke="#001026" stroke-width="1.2" stroke-linecap="round" stroke-linejoin="round"/><path d="M230.95367,170.48066c-6.21705,1.13506 -10.28931,-0.36046 -10.28931,-0.36046" fill="none" fill-rule="evenodd" stroke="#001026" stroke-width="1.2" stroke-linecap="round" stroke-linejoin="round"/><path d="M196.11622,163.97317c2.08922,-0.21254 4.29816,-0.23623 4.46849,0.45005c0.24119,1.38269 -0.96773,4.32013 -2.54939,4.58156c-1.77051,0.38116 -6.20198,-1.68093 -6.36391,-3.27271c-0.22094,-1.18372 2.45507,-1.55648 4.44481,-1.75889z" fill="#001026" fill-rule="evenodd" stroke="#001026" stroke-width="1.2" stroke-linecap="round" stroke-linejoin="round"/><path d="M151.19545,167.03536c0,0 8.83923,1.91521 12.63501,4.64505" fill="none" fill-rule="evenodd" stroke="#001026" stroke-width="1.2" stroke-linecap="round" stroke-linejoin="round"/><path d="M164.4832,175.13206c-4.10586,2.12647 -11.57919,1.78108 -11.57919,1.78108" fill="none" fill-rule="evenodd" stroke="#001026" stroke-width="1.2" stroke-linecap="round" stroke-linejoin="round"/><g fill-rule="evenodd"><path d="M206.51658,151.15472c3.34055,4.18338 3.95622,9.24707 1.35278,11.32122c-2.60344,2.07415 -7.39236,0.4505 -10.8324,-3.72276c-1.87861,-2.35259 -2.89547,-4.98359 -2.96266,-7.20472c0.00063,0.00029 7.19769,-4.46726 7.1977,-4.46954c1.82681,0.73871 3.70185,2.14381 5.2446,4.07581z" fill="#ffffff" stroke="#001026" stroke-width="1.2" stroke-linecap="round" stroke-linejoin="round"/><path d="M207.44369,155.09486c0.11133,1.09435 -0.59347,2.07069 -1.58834,2.1719c-0.99487,0.10121 -1.88185,-0.7132 -1.99318,-1.80755c-0.11133,-1.09435 0.59347,-2.0707 1.58834,-2.17191c0.99487,-0.10121 1.88185,0.71321 1.99318,1.80756" fill="#001026" stroke="none" stroke-width="1" stroke-linecap="butt" stroke-linejoin="miter"/></g><g fill-rule="evenodd"><path d="M182.25088,156.12694c3.42992,4.07378 3.77748,9.46628 1.28365,11.6298c-3.09076,2.22424 -7.60985,1.27676 -11.03977,-2.79702c-2.95301,-3.4 -3.97842,-7.91087 -2.5586,-10.75928c0.00797,0.01558 9.23986,-0.82377 9.25413,-0.87254c1.08272,0.74114 2.12683,1.68999 3.06061,2.79905z" fill="#ffffff" stroke="#001026" stroke-width="1.2" stroke-linecap="round" stroke-linejoin="round"/><path d="M182.80828,161.28017c0.11133,1.09435 -0.59347,2.0707 -1.58834,2.17191c-0.99487,0.10121 -1.88184,-0.7132 -1.99318,-1.80755c-0.11133,-1.09435 0.59347,-2.0707 1.58834,-2.17191c1.00499,-0.00172 1.88184,0.71321 1.99318,1.80756" fill="#001026" stroke="none" stroke-width="1" stroke-linecap="butt" stroke-linejoin="miter"/></g></g><g data-paper-data="{&quot;index&quot;:null}" fill-rule="nonzero" stroke-linejoin="miter"><path d="M214.47115,195.37461c0,0 -3.7351,-3.14457 -5.5563,-5.83512c-0.91049,-1.34512 -0.78864,-3.05802 -0.59032,-3.24538c0.51328,-0.48497 3.02464,-0.47361 3.72139,0.26382c0.55194,0.58418 5.78641,5.64096 5.78641,5.64096c0,0 -0.73716,2.22325 -1.32377,2.7775c-0.52748,0.49838 -2.0374,0.39822 -2.0374,0.39822z" data-paper-data="{&quot;index&quot;:null}" fill="#4a4a4a" stroke="#001026" stroke-width="0" stroke-linecap="butt"/><path d="M195.91598,190.16975l-1.72988,-9.232l21.37678,-4.00555l1.72988,9.23201z" fill="#6a6868" stroke="#001026" stroke-width="0" stroke-linecap="butt"/><path d="M210.87992,181.16488l-3.15689,0.56009" fill="none" stroke="#001026" stroke-width="2" stroke-linecap="round"/><path d="M191.45821,199.12552c0,0 0.21876,-6.69872 1.57343,-10.94787c0.67724,-2.12432 2.62794,-3.44776 2.99844,-3.39302c0.95895,0.14163 3.07968,2.8595 2.8762,4.23721c-0.16119,1.09137 -1.16862,11.0311 -1.16862,11.0311c0,0 -3.02362,1.09334 -4.11956,0.93149c-0.98547,-0.14554 -2.15988,-1.8589 -2.15988,-1.8589z" fill="#9f4300" stroke="#001026" stroke-width="0" stroke-linecap="butt"/><g stroke-width="0" stroke-linecap="butt"><path d="M227.67597,177.74575l1.0466,5.58551l-4.60683,0.86321l-1.0466,-5.5855z" fill="#353535" stroke="none"/><path d="M215.72088,181.17063l-0.73659,-3.93103l20.3281,-3.80904l0.73659,3.93103z" fill="#4a4a4a" stroke="#001026"/><path d="M216.68812,186.33257l-0.57536,-3.07055l16.79643,-3.14728l0.57536,3.07055z" fill="#4a4a4a" stroke="#001026"/></g></g><path d="M187.92304,195.37426c2.03838,-2.91977 4.39713,-7.19132 8.42322,-3.92166c4.87449,4.68394 -3.26618,12.28259 -6.32354,14.25808c-2.70379,1.76338 -5.37401,-0.14186 -7.64078,-1.75176c-4.21742,-3.21144 -7.94407,-5.84052 -7.67335,-10.10394c0.26664,-5.30744 5.14133,-3.02766 7.5911,-1.15987c1.48899,1.11486 3.07365,2.2006 4.06353,3.04922c0.56567,0.14147 1.16881,0.06249 1.55982,-0.37007z" fill="#ffab19" fill-rule="evenodd" stroke="#001026" stroke-width="1.2" stroke-linecap="round" stroke-linejoin="round"/></g></g></g></svg>